# xmcd
#
# Track frame offsets:
#	150
#	14849
#	28851
#	44443
#	57167
#	70499
#	85461
#	98184
#	114114
#	129244
#
# Disc length: 1936 seconds
#
# Revision: 0
# Processed by: cddbd v1.5.2PL0 Copyright (c) Steve Scherf et al.
# Submitted via: EasyCDDAExtractor 16.0.6.1
#
DISCID=87078e0a
DTITLE=Συλλογικός δίσκος - Λαϊκό τραγούδι 1954-1967, 1955-1
DYEAR=2008
DGENRE=Λαϊκή
TTITLE0=Καζαντζίδης Στέλιος - Έφυγες και πού μ' αφήνεις [Μαν. Χιώτης-Κώστας Βί
TTITLE0=ρβος/Χρ. Κολοκοτρώνης]
TTITLE1=Γκρέϋ Καίτη-Ρουμελιώτης Δημήτρης - Μιά θλιβερή Παρασκευή [Μπάμπης Μπακ
TTITLE1=άλης]
TTITLE2=Μπιθικώτσης Γρηγόρης-Κωτσόγλου Ελένη - Το τρελλοκόριτσο [Γρηγόρης Μπιθ
TTITLE2=ικώτσης-Γ. Παπαδόπουλος]
TTITLE3=Γκρέϋ Καίτη - Τσιγγάνα μου [Στέλιος Χρυσίνης-Χρήστος Κολοκοτρώνης]
TTITLE4=Νίνου Μαρίκα-Ευσταθίου Δημήτρης - Νύφη εγώ στην εκκλησιά με άλλονε δεν
TTITLE4=πάω [Μαρίκα Νίνου]
TTITLE5=Καζαντζίδης Στέλιος - Του φτωχού ο πόνος [Απόστολος Καλδάρας-Κώστας Βί
TTITLE5=ρβος]
TTITLE6=Νίνου Μαρίκα-Τζουανάκος Σταύρος - Παραστράτησα για σένα [Κώστας Καπλάν
TTITLE6=ης]
TTITLE7=Καζαντζίδης Στέλιος - Κλαίει απόψε η καρδιά μου [Βασίλης Ταμβάκης-Χαρά
TTITLE7=λαμπος Βασιλειάδης]
TTITLE8=Γκρέϋ Καίτη - Το παιδί της δεν τής γράφει [Μανώλης Χιώτης-Χρήστος Κολο
TTITLE8=κοτρώνης]
TTITLE9=Ντάλια Ρένα - Χαράματα θα φύγω [Γρηγόρης Μπιθικώτσης-Κώστας Βίρβος]
EXTD=
EXTT0=
EXTT1=
EXTT2=
EXTT3=
EXTT4=
EXTT5=
EXTT6=
EXTT7=
EXTT8=
EXTT9=
PLAYORDER=
